# xmcd
#
# Track frame offsets:
#	150
#	27485
#	52630
#	96862
#	126895
#
# Disc length: 2061 seconds
#
# Revision: 0
# Processed by: cddbd v1.5.2PL0 Copyright (c) Steve Scherf et al.
# Submitted via: dBpowerAMP V4.0
#
DISCID=37080b05
DTITLE=Warren Haynes, Derek Trucks, Susan Tedeschi and Little Milton - Live at WNCW Public Radio In Spindale, NC 12-21-1999
DYEAR=1999
DGENRE=Acoustic
TTITLE0=It Hurts Me Too
TTITLE1=Rock-A-Bye Baby
TTITLE2=Born To Be No Good
TTITLE3=Good Morning Little Schoolgirl
TTITLE4=You Don't Know
EXTD=Bonus Disc included with ordering Live at the Roseland Ballroom by Gov't Mule from Mule.net
EXTT0=
EXTT1=
EXTT2=
EXTT3=
EXTT4=
PLAYORDER=
